<mxfile host="app.diagrams.net" modified="2023-09-01T06:32:45.173Z" agent="Mozilla/5.0 (X11; Linux x86_64; rv:109.0) Gecko/20100101 Firefox/115.0" etag="85TmEtI-Yy62PwQdEF-5" version="21.7.1" type="device" pages="4">
  <diagram name="Road-to-the-top" id="d9b1e647-80fa-b4a2-5024-87a742678bcc">
    <mxGraphModel dx="2064" dy="1159" grid="1" gridSize="10" guides="1" tooltips="1" connect="1" arrows="1" fold="1" page="1" pageScale="1" pageWidth="1100" pageHeight="850" background="none" math="0" shadow="0">
      <root>
        <mxCell id="0" />
        <mxCell id="1" parent="0" />
        <mxCell id="57fe6abec08f04cb-1" value="Aug" style="shape=step;whiteSpace=wrap;html=1;fontSize=28;fillColor=#0080FF;fontColor=#FFFFFF;strokeColor=none;" parent="1" vertex="1">
          <mxGeometry x="90" y="180" width="170" height="80" as="geometry" />
        </mxCell>
        <mxCell id="57fe6abec08f04cb-2" value="Sep" style="shape=step;whiteSpace=wrap;html=1;fontSize=28;fillColor=#0075E8;fontColor=#FFFFFF;strokeColor=none;" parent="1" vertex="1">
          <mxGeometry x="240" y="180" width="170" height="80" as="geometry" />
        </mxCell>
        <mxCell id="57fe6abec08f04cb-3" value="Oct" style="shape=step;whiteSpace=wrap;html=1;fontSize=28;fillColor=#0067CC;fontColor=#FFFFFF;strokeColor=none;" parent="1" vertex="1">
          <mxGeometry x="390" y="180" width="170" height="80" as="geometry" />
        </mxCell>
        <mxCell id="57fe6abec08f04cb-4" value="Nov" style="shape=step;whiteSpace=wrap;html=1;fontSize=28;fillColor=#0062C4;fontColor=#FFFFFF;strokeColor=none;" parent="1" vertex="1">
          <mxGeometry x="540" y="180" width="170" height="80" as="geometry" />
        </mxCell>
        <mxCell id="57fe6abec08f04cb-5" value="Dec" style="shape=step;whiteSpace=wrap;html=1;fontSize=28;fillColor=#0059B0;fontColor=#FFFFFF;strokeColor=none;" parent="1" vertex="1">
          <mxGeometry x="690" y="180" width="170" height="80" as="geometry" />
        </mxCell>
        <mxCell id="57fe6abec08f04cb-6" value="Jan" style="shape=step;whiteSpace=wrap;html=1;fontSize=28;fillColor=#004D99;fontColor=#FFFFFF;strokeColor=none;" parent="1" vertex="1">
          <mxGeometry x="840" y="180" width="170" height="80" as="geometry" />
        </mxCell>
        <mxCell id="57fe6abec08f04cb-7" value="Yggdrasill 2023-2024" style="text;html=1;strokeColor=none;fillColor=#61BAFF;align=center;verticalAlign=middle;whiteSpace=wrap;fontSize=54;fontStyle=1;fontColor=#004D99;" parent="1" vertex="1">
          <mxGeometry x="120" y="110" width="860" height="60" as="geometry" />
        </mxCell>
        <mxCell id="K4F-WoBLJPUvcfpeGWZ--1" value="&lt;b&gt;XTCE Definitions&lt;/b&gt;" style="swimlane;fontStyle=0;childLayout=stackLayout;horizontal=1;startSize=30;horizontalStack=0;resizeParent=1;resizeParentMax=0;resizeLast=0;collapsible=1;marginBottom=0;whiteSpace=wrap;html=1;swimlaneFillColor=default;" parent="1" vertex="1">
          <mxGeometry x="100" y="280" width="140" height="380" as="geometry" />
        </mxCell>
        <mxCell id="K4F-WoBLJPUvcfpeGWZ--2" value="&lt;div&gt;- Create a LISP based DSL for defining XTCE constructs.&lt;/div&gt;&lt;div&gt;&lt;br&gt;&lt;/div&gt;&lt;div&gt;&lt;br&gt;&lt;/div&gt;&lt;div&gt;&lt;br&gt;&lt;/div&gt;&lt;div&gt;&lt;br&gt;&lt;/div&gt;&lt;div&gt;&lt;br&gt;&lt;/div&gt;&lt;div&gt;&lt;br&gt;&lt;/div&gt;&lt;div&gt;&lt;br&gt;&lt;/div&gt;&lt;div&gt;&lt;br&gt;&lt;/div&gt;&lt;div&gt;&lt;br&gt;&lt;/div&gt;&lt;div&gt;&lt;br&gt;&lt;/div&gt;" style="text;strokeColor=none;fillColor=none;align=left;verticalAlign=middle;spacingLeft=4;spacingRight=4;overflow=hidden;points=[[0,0.5],[1,0.5]];portConstraint=eastwest;rotatable=0;whiteSpace=wrap;html=1;" parent="K4F-WoBLJPUvcfpeGWZ--1" vertex="1">
          <mxGeometry y="30" width="140" height="60" as="geometry" />
        </mxCell>
        <mxCell id="K4F-WoBLJPUvcfpeGWZ--3" value="- Use LISP DSL to define XTCE constructs" style="text;strokeColor=none;fillColor=none;align=left;verticalAlign=middle;spacingLeft=4;spacingRight=4;overflow=hidden;points=[[0,0.5],[1,0.5]];portConstraint=eastwest;rotatable=0;whiteSpace=wrap;html=1;" parent="K4F-WoBLJPUvcfpeGWZ--1" vertex="1">
          <mxGeometry y="90" width="140" height="40" as="geometry" />
        </mxCell>
        <mxCell id="K4F-WoBLJPUvcfpeGWZ--11" value="- Capability to export the LISP description to XML" style="text;whiteSpace=wrap;html=1;" parent="K4F-WoBLJPUvcfpeGWZ--1" vertex="1">
          <mxGeometry y="130" width="140" height="50" as="geometry" />
        </mxCell>
        <mxCell id="K4F-WoBLJPUvcfpeGWZ--4" value="&lt;div&gt;- Capability to incrementally define and dump elements.&lt;/div&gt;" style="text;strokeColor=none;fillColor=none;align=left;verticalAlign=middle;spacingLeft=4;spacingRight=4;overflow=hidden;points=[[0,0.5],[1,0.5]];portConstraint=eastwest;rotatable=0;whiteSpace=wrap;html=1;" parent="K4F-WoBLJPUvcfpeGWZ--1" vertex="1">
          <mxGeometry y="180" width="140" height="50" as="geometry" />
        </mxCell>
        <mxCell id="K4F-WoBLJPUvcfpeGWZ--12" value="- Typecheck and resolve XTCE ruleset." style="text;whiteSpace=wrap;html=1;" parent="K4F-WoBLJPUvcfpeGWZ--1" vertex="1">
          <mxGeometry y="230" width="140" height="50" as="geometry" />
        </mxCell>
        <mxCell id="K4F-WoBLJPUvcfpeGWZ--16" value="- Full implementation is not guaranteed, the goal is to prototype in order to show the potential in the software." style="text;whiteSpace=wrap;html=1;" parent="K4F-WoBLJPUvcfpeGWZ--1" vertex="1">
          <mxGeometry y="280" width="140" height="100" as="geometry" />
        </mxCell>
        <mxCell id="K4F-WoBLJPUvcfpeGWZ--5" value="Feb" style="shape=step;whiteSpace=wrap;html=1;fontSize=28;fillColor=#0080FF;fontColor=#FFFFFF;strokeColor=none;" parent="1" vertex="1">
          <mxGeometry x="990" y="180" width="170" height="80" as="geometry" />
        </mxCell>
        <mxCell id="K4F-WoBLJPUvcfpeGWZ--6" value="Mar" style="shape=step;whiteSpace=wrap;html=1;fontSize=28;fillColor=#0075E8;fontColor=#FFFFFF;strokeColor=none;" parent="1" vertex="1">
          <mxGeometry x="1140" y="180" width="170" height="80" as="geometry" />
        </mxCell>
        <mxCell id="K4F-WoBLJPUvcfpeGWZ--7" value="Apr" style="shape=step;whiteSpace=wrap;html=1;fontSize=28;fillColor=#0067CC;fontColor=#FFFFFF;strokeColor=none;" parent="1" vertex="1">
          <mxGeometry x="1290" y="180" width="170" height="80" as="geometry" />
        </mxCell>
        <mxCell id="K4F-WoBLJPUvcfpeGWZ--8" value="May" style="shape=step;whiteSpace=wrap;html=1;fontSize=28;fillColor=#0062C4;fontColor=#FFFFFF;strokeColor=none;" parent="1" vertex="1">
          <mxGeometry x="1440" y="180" width="170" height="80" as="geometry" />
        </mxCell>
        <mxCell id="K4F-WoBLJPUvcfpeGWZ--9" value="Jun" style="shape=step;whiteSpace=wrap;html=1;fontSize=28;fillColor=#0059B0;fontColor=#FFFFFF;strokeColor=none;" parent="1" vertex="1">
          <mxGeometry x="1590" y="180" width="170" height="80" as="geometry" />
        </mxCell>
        <mxCell id="K4F-WoBLJPUvcfpeGWZ--10" value="Jul" style="shape=step;whiteSpace=wrap;html=1;fontSize=28;fillColor=#004D99;fontColor=#FFFFFF;strokeColor=none;" parent="1" vertex="1">
          <mxGeometry x="1740" y="180" width="170" height="80" as="geometry" />
        </mxCell>
        <mxCell id="K4F-WoBLJPUvcfpeGWZ--17" value="&lt;b&gt;XTCE Engine - Telemetry&lt;br&gt;&lt;/b&gt;" style="swimlane;fontStyle=0;childLayout=stackLayout;horizontal=1;startSize=30;horizontalStack=0;resizeParent=1;resizeParentMax=0;resizeLast=0;collapsible=1;marginBottom=0;whiteSpace=wrap;html=1;swimlaneFillColor=default;" parent="1" vertex="1">
          <mxGeometry x="250" y="280" width="210" height="330" as="geometry" />
        </mxCell>
        <mxCell id="K4F-WoBLJPUvcfpeGWZ--18" value="&lt;div&gt;&lt;b&gt;&lt;br&gt;&lt;/b&gt;&lt;/div&gt;&lt;div&gt;- DSL will be used to create dynamically create constructs for telemetry processing.&lt;br&gt;&lt;/div&gt;&lt;div&gt;&lt;br&gt;&lt;/div&gt;&lt;div&gt;&lt;br&gt;&lt;/div&gt;&lt;div&gt;&lt;br&gt;&lt;/div&gt;&lt;div&gt;&lt;br&gt;&lt;/div&gt;&lt;div&gt;&lt;br&gt;&lt;/div&gt;" style="text;strokeColor=none;fillColor=none;align=left;verticalAlign=middle;spacingLeft=4;spacingRight=4;overflow=hidden;points=[[0,0.5],[1,0.5]];portConstraint=eastwest;rotatable=0;whiteSpace=wrap;html=1;" parent="K4F-WoBLJPUvcfpeGWZ--17" vertex="1">
          <mxGeometry y="30" width="210" height="80" as="geometry" />
        </mxCell>
        <mxCell id="K4F-WoBLJPUvcfpeGWZ--19" value="- Cosntructs for unframing and depacketizing telemetry." style="text;strokeColor=none;fillColor=none;align=left;verticalAlign=middle;spacingLeft=4;spacingRight=4;overflow=hidden;points=[[0,0.5],[1,0.5]];portConstraint=eastwest;rotatable=0;whiteSpace=wrap;html=1;" parent="K4F-WoBLJPUvcfpeGWZ--17" vertex="1">
          <mxGeometry y="110" width="210" height="70" as="geometry" />
        </mxCell>
        <mxCell id="K4F-WoBLJPUvcfpeGWZ--20" value="- Constructs for resolving dynamic containers." style="text;whiteSpace=wrap;html=1;" parent="K4F-WoBLJPUvcfpeGWZ--17" vertex="1">
          <mxGeometry y="180" width="210" height="40" as="geometry" />
        </mxCell>
        <mxCell id="K4F-WoBLJPUvcfpeGWZ--21" value="- Extend the DSL by defining Standard Construct Templates for common CCSDS protocols (AOS, Space Packet, M_PDU)." style="text;strokeColor=none;fillColor=none;align=left;verticalAlign=middle;spacingLeft=4;spacingRight=4;overflow=hidden;points=[[0,0.5],[1,0.5]];portConstraint=eastwest;rotatable=0;whiteSpace=wrap;html=1;" parent="K4F-WoBLJPUvcfpeGWZ--17" vertex="1">
          <mxGeometry y="220" width="210" height="110" as="geometry" />
        </mxCell>
        <mxCell id="K4F-WoBLJPUvcfpeGWZ--25" value="&lt;b&gt;Networking&lt;/b&gt;" style="swimlane;fontStyle=0;childLayout=stackLayout;horizontal=1;startSize=30;horizontalStack=0;resizeParent=1;resizeParentMax=0;resizeLast=0;collapsible=1;marginBottom=0;whiteSpace=wrap;html=1;swimlaneFillColor=default;" parent="1" vertex="1">
          <mxGeometry x="480" y="280" width="160" height="430" as="geometry" />
        </mxCell>
        <mxCell id="K4F-WoBLJPUvcfpeGWZ--26" value="- Create NATS and Jetstream Library" style="text;strokeColor=none;fillColor=none;align=left;verticalAlign=middle;spacingLeft=4;spacingRight=4;overflow=hidden;points=[[0,0.5],[1,0.5]];portConstraint=eastwest;rotatable=0;whiteSpace=wrap;html=1;" parent="K4F-WoBLJPUvcfpeGWZ--25" vertex="1">
          <mxGeometry y="30" width="160" height="40" as="geometry" />
        </mxCell>
        <mxCell id="K4F-WoBLJPUvcfpeGWZ--27" value="- Use Hunchentoot to create webserver" style="text;strokeColor=none;fillColor=none;align=left;verticalAlign=middle;spacingLeft=4;spacingRight=4;overflow=hidden;points=[[0,0.5],[1,0.5]];portConstraint=eastwest;rotatable=0;whiteSpace=wrap;html=1;" parent="K4F-WoBLJPUvcfpeGWZ--25" vertex="1">
          <mxGeometry y="70" width="160" height="40" as="geometry" />
        </mxCell>
        <mxCell id="K4F-WoBLJPUvcfpeGWZ--29" value="- Create NATS constructs for communicating to the rest of the Bifrost network." style="text;strokeColor=none;fillColor=none;align=left;verticalAlign=middle;spacingLeft=4;spacingRight=4;overflow=hidden;points=[[0,0.5],[1,0.5]];portConstraint=eastwest;rotatable=0;whiteSpace=wrap;html=1;" parent="K4F-WoBLJPUvcfpeGWZ--25" vertex="1">
          <mxGeometry y="110" width="160" height="60" as="geometry" />
        </mxCell>
        <mxCell id="K4F-WoBLJPUvcfpeGWZ--30" value="- Create XTCE Engine and DSL constructs for defining a host and algorithm call out. This will be used to pause decommutation, send the current state to an external program on the Bifrost network which will perform custom decommutation logic before returning to Yggdrasill and continuing the computation." style="text;strokeColor=none;fillColor=none;align=left;verticalAlign=middle;spacingLeft=4;spacingRight=4;overflow=hidden;points=[[0,0.5],[1,0.5]];portConstraint=eastwest;rotatable=0;whiteSpace=wrap;html=1;" parent="K4F-WoBLJPUvcfpeGWZ--25" vertex="1">
          <mxGeometry y="170" width="160" height="190" as="geometry" />
        </mxCell>
        <mxCell id="K4F-WoBLJPUvcfpeGWZ--45" value="- Use network constructs to publish status and error messages of XTCE engine components." style="text;strokeColor=none;fillColor=none;align=left;verticalAlign=middle;spacingLeft=4;spacingRight=4;overflow=hidden;points=[[0,0.5],[1,0.5]];portConstraint=eastwest;rotatable=0;whiteSpace=wrap;html=1;" parent="K4F-WoBLJPUvcfpeGWZ--25" vertex="1">
          <mxGeometry y="360" width="160" height="70" as="geometry" />
        </mxCell>
        <mxCell id="K4F-WoBLJPUvcfpeGWZ--31" value="&lt;b&gt;XTCE Engine&lt;/b&gt; &lt;b&gt;- Telecommand&lt;/b&gt;" style="swimlane;fontStyle=0;childLayout=stackLayout;horizontal=1;startSize=30;horizontalStack=0;resizeParent=1;resizeParentMax=0;resizeLast=0;collapsible=1;marginBottom=0;whiteSpace=wrap;html=1;swimlaneFillColor=default;" parent="1" vertex="1">
          <mxGeometry x="650" y="280" width="210" height="310" as="geometry" />
        </mxCell>
        <mxCell id="K4F-WoBLJPUvcfpeGWZ--32" value="&lt;div&gt;&lt;b&gt;&lt;br&gt;&lt;/b&gt;&lt;/div&gt;&lt;div&gt;- DSL will be used to create dynamically create constructs for command processing.&lt;br&gt;&lt;/div&gt;&lt;div&gt;&lt;br&gt;&lt;/div&gt;&lt;div&gt;&lt;br&gt;&lt;/div&gt;&lt;div&gt;&lt;br&gt;&lt;/div&gt;&lt;div&gt;&lt;br&gt;&lt;/div&gt;&lt;div&gt;&lt;br&gt;&lt;/div&gt;" style="text;strokeColor=none;fillColor=none;align=left;verticalAlign=middle;spacingLeft=4;spacingRight=4;overflow=hidden;points=[[0,0.5],[1,0.5]];portConstraint=eastwest;rotatable=0;whiteSpace=wrap;html=1;" parent="K4F-WoBLJPUvcfpeGWZ--31" vertex="1">
          <mxGeometry y="30" width="210" height="60" as="geometry" />
        </mxCell>
        <mxCell id="K4F-WoBLJPUvcfpeGWZ--33" value="- Constructs for framing and packetizing telemetry." style="text;strokeColor=none;fillColor=none;align=left;verticalAlign=middle;spacingLeft=4;spacingRight=4;overflow=hidden;points=[[0,0.5],[1,0.5]];portConstraint=eastwest;rotatable=0;whiteSpace=wrap;html=1;" parent="K4F-WoBLJPUvcfpeGWZ--31" vertex="1">
          <mxGeometry y="90" width="210" height="50" as="geometry" />
        </mxCell>
        <mxCell id="K4F-WoBLJPUvcfpeGWZ--34" value="&amp;nbsp;- Constructs for resolving dynamic containers." style="text;whiteSpace=wrap;html=1;" parent="K4F-WoBLJPUvcfpeGWZ--31" vertex="1">
          <mxGeometry y="140" width="210" height="40" as="geometry" />
        </mxCell>
        <mxCell id="K4F-WoBLJPUvcfpeGWZ--35" value="- Extend the DSL by defining Standard Construct Templates for common CCSDS protocols (TCTF, CLTU, etc...)." style="text;strokeColor=none;fillColor=none;align=left;verticalAlign=middle;spacingLeft=4;spacingRight=4;overflow=hidden;points=[[0,0.5],[1,0.5]];portConstraint=eastwest;rotatable=0;whiteSpace=wrap;html=1;" parent="K4F-WoBLJPUvcfpeGWZ--31" vertex="1">
          <mxGeometry y="180" width="210" height="70" as="geometry" />
        </mxCell>
        <mxCell id="K4F-WoBLJPUvcfpeGWZ--44" value="- Provide user the capability to customize the XTCE engine without modifying the XTCE description." style="text;strokeColor=none;fillColor=none;align=left;verticalAlign=middle;spacingLeft=4;spacingRight=4;overflow=hidden;points=[[0,0.5],[1,0.5]];portConstraint=eastwest;rotatable=0;whiteSpace=wrap;html=1;" parent="K4F-WoBLJPUvcfpeGWZ--31" vertex="1">
          <mxGeometry y="250" width="210" height="60" as="geometry" />
        </mxCell>
        <mxCell id="K4F-WoBLJPUvcfpeGWZ--36" value="&lt;b&gt;Bifrost/NASA-cFS Integration Test&lt;br&gt;&lt;/b&gt;" style="swimlane;fontStyle=0;childLayout=stackLayout;horizontal=1;startSize=30;horizontalStack=0;resizeParent=1;resizeParentMax=0;resizeLast=0;collapsible=1;marginBottom=0;whiteSpace=wrap;html=1;swimlaneFillColor=default;" parent="1" vertex="1">
          <mxGeometry x="890" y="280" width="210" height="290" as="geometry" />
        </mxCell>
        <mxCell id="K4F-WoBLJPUvcfpeGWZ--39" value="&amp;nbsp;- Utilize current software version to define NASA-cFS dictionaries." style="text;whiteSpace=wrap;html=1;" parent="K4F-WoBLJPUvcfpeGWZ--36" vertex="1">
          <mxGeometry y="30" width="210" height="40" as="geometry" />
        </mxCell>
        <mxCell id="K4F-WoBLJPUvcfpeGWZ--40" value="- Package and integrate Yggdrassill into Bifrost. " style="text;strokeColor=none;fillColor=none;align=left;verticalAlign=middle;spacingLeft=4;spacingRight=4;overflow=hidden;points=[[0,0.5],[1,0.5]];portConstraint=eastwest;rotatable=0;whiteSpace=wrap;html=1;" parent="K4F-WoBLJPUvcfpeGWZ--36" vertex="1">
          <mxGeometry y="70" width="210" height="40" as="geometry" />
        </mxCell>
        <mxCell id="K4F-WoBLJPUvcfpeGWZ--41" value="&lt;div&gt;- Bifrost-Gjallarhorn will be used to operate Yggdrasill to create&amp;nbsp; commands for NASA-cFS.&lt;/div&gt;" style="text;strokeColor=none;fillColor=none;align=left;verticalAlign=middle;spacingLeft=4;spacingRight=4;overflow=hidden;points=[[0,0.5],[1,0.5]];portConstraint=eastwest;rotatable=0;whiteSpace=wrap;html=1;" parent="K4F-WoBLJPUvcfpeGWZ--36" vertex="1">
          <mxGeometry y="110" width="210" height="60" as="geometry" />
        </mxCell>
        <mxCell id="K4F-WoBLJPUvcfpeGWZ--42" value="&lt;div&gt;- Yggdrasil will output the computed command to Bifrost which will be directly uplinked to NASA-cFS.&lt;br&gt;&lt;/div&gt;" style="text;strokeColor=none;fillColor=none;align=left;verticalAlign=middle;spacingLeft=4;spacingRight=4;overflow=hidden;points=[[0,0.5],[1,0.5]];portConstraint=eastwest;rotatable=0;whiteSpace=wrap;html=1;" parent="K4F-WoBLJPUvcfpeGWZ--36" vertex="1">
          <mxGeometry y="170" width="210" height="60" as="geometry" />
        </mxCell>
        <mxCell id="K4F-WoBLJPUvcfpeGWZ--43" value="&lt;div&gt;- Bifrost will forward telemetry streams to Yggdrasill which will decommutate and publish packets into the Bifrost Network&lt;br&gt;&lt;/div&gt;" style="text;strokeColor=none;fillColor=none;align=left;verticalAlign=middle;spacingLeft=4;spacingRight=4;overflow=hidden;points=[[0,0.5],[1,0.5]];portConstraint=eastwest;rotatable=0;whiteSpace=wrap;html=1;" parent="K4F-WoBLJPUvcfpeGWZ--36" vertex="1">
          <mxGeometry y="230" width="210" height="60" as="geometry" />
        </mxCell>
        <mxCell id="K4F-WoBLJPUvcfpeGWZ--46" value="&lt;b&gt;Yggdrasil Tutorial&lt;br&gt;&lt;/b&gt;" style="swimlane;fontStyle=0;childLayout=stackLayout;horizontal=1;startSize=30;horizontalStack=0;resizeParent=1;resizeParentMax=0;resizeLast=0;collapsible=1;marginBottom=0;whiteSpace=wrap;html=1;swimlaneFillColor=default;" parent="1" vertex="1">
          <mxGeometry x="1130" y="280" width="230" height="260" as="geometry" />
        </mxCell>
        <mxCell id="K4F-WoBLJPUvcfpeGWZ--47" value="- Create tutorial similar to https://github.com/moocfi/haskell-mooc" style="text;whiteSpace=wrap;html=1;" parent="K4F-WoBLJPUvcfpeGWZ--46" vertex="1">
          <mxGeometry y="30" width="230" height="40" as="geometry" />
        </mxCell>
        <mxCell id="K4F-WoBLJPUvcfpeGWZ--48" value="- Introduce operation of the IDE." style="text;strokeColor=none;fillColor=none;align=left;verticalAlign=middle;spacingLeft=4;spacingRight=4;overflow=hidden;points=[[0,0.5],[1,0.5]];portConstraint=eastwest;rotatable=0;whiteSpace=wrap;html=1;" parent="K4F-WoBLJPUvcfpeGWZ--46" vertex="1">
          <mxGeometry y="70" width="230" height="40" as="geometry" />
        </mxCell>
        <mxCell id="K4F-WoBLJPUvcfpeGWZ--49" value="- Introduce XTCE constructs using realistic scenarios." style="text;strokeColor=none;fillColor=none;align=left;verticalAlign=middle;spacingLeft=4;spacingRight=4;overflow=hidden;points=[[0,0.5],[1,0.5]];portConstraint=eastwest;rotatable=0;whiteSpace=wrap;html=1;" parent="K4F-WoBLJPUvcfpeGWZ--46" vertex="1">
          <mxGeometry y="110" width="230" height="60" as="geometry" />
        </mxCell>
        <mxCell id="K4F-WoBLJPUvcfpeGWZ--50" value="- Provide exercises requiring the user to modify or create XTCE constructs, which will be evaluated for correctness. " style="text;strokeColor=none;fillColor=none;align=left;verticalAlign=middle;spacingLeft=4;spacingRight=4;overflow=hidden;points=[[0,0.5],[1,0.5]];portConstraint=eastwest;rotatable=0;whiteSpace=wrap;html=1;" parent="K4F-WoBLJPUvcfpeGWZ--46" vertex="1">
          <mxGeometry y="170" width="230" height="60" as="geometry" />
        </mxCell>
        <mxCell id="K4F-WoBLJPUvcfpeGWZ--51" value="&lt;div&gt;- Begin documentation of codebase&lt;br&gt;&lt;/div&gt;" style="text;strokeColor=none;fillColor=none;align=left;verticalAlign=middle;spacingLeft=4;spacingRight=4;overflow=hidden;points=[[0,0.5],[1,0.5]];portConstraint=eastwest;rotatable=0;whiteSpace=wrap;html=1;" parent="K4F-WoBLJPUvcfpeGWZ--46" vertex="1">
          <mxGeometry y="230" width="230" height="30" as="geometry" />
        </mxCell>
        <mxCell id="K4F-WoBLJPUvcfpeGWZ--52" value="&lt;b&gt;Yggdrasil Documentation&lt;br&gt;&lt;/b&gt;" style="swimlane;fontStyle=0;childLayout=stackLayout;horizontal=1;startSize=30;horizontalStack=0;resizeParent=1;resizeParentMax=0;resizeLast=0;collapsible=1;marginBottom=0;whiteSpace=wrap;html=1;swimlaneFillColor=default;" parent="1" vertex="1">
          <mxGeometry x="1390" y="280" width="270" height="160" as="geometry" />
        </mxCell>
        <mxCell id="K4F-WoBLJPUvcfpeGWZ--57" value="&lt;div&gt;- Documentation of software usage and interfaces.&lt;br&gt;&lt;/div&gt;" style="text;strokeColor=none;fillColor=none;align=left;verticalAlign=middle;spacingLeft=4;spacingRight=4;overflow=hidden;points=[[0,0.5],[1,0.5]];portConstraint=eastwest;rotatable=0;whiteSpace=wrap;html=1;" parent="K4F-WoBLJPUvcfpeGWZ--52" vertex="1">
          <mxGeometry y="30" width="270" height="130" as="geometry" />
        </mxCell>
        <mxCell id="K4F-WoBLJPUvcfpeGWZ--58" value="&lt;b&gt;Final Delivery&lt;br&gt;&lt;/b&gt;" style="swimlane;fontStyle=0;childLayout=stackLayout;horizontal=1;startSize=30;horizontalStack=0;resizeParent=1;resizeParentMax=0;resizeLast=0;collapsible=1;marginBottom=0;whiteSpace=wrap;html=1;swimlaneFillColor=#000000;gradientColor=none;" parent="1" vertex="1">
          <mxGeometry x="1390" y="450" width="260" height="170" as="geometry" />
        </mxCell>
        <mxCell id="K4F-WoBLJPUvcfpeGWZ--60" value="&lt;div&gt;THIS IS THE&amp;nbsp;&lt;/div&gt;&lt;div&gt;END OF &lt;br&gt;&lt;/div&gt;&lt;div&gt;&lt;font style=&quot;font-size: 20px;&quot;&gt;DEVELOPMENT&lt;/font&gt;&lt;/div&gt;&lt;div&gt;&lt;br&gt;&lt;/div&gt;&lt;div&gt;RELEASE: 1.0 &lt;br&gt;&lt;/div&gt;&lt;div&gt;&lt;br&gt;&lt;/div&gt;&lt;div&gt;&amp;nbsp;&amp;nbsp;&amp;nbsp;&amp;nbsp;&amp;nbsp;&amp;nbsp;&amp;nbsp;&amp;nbsp;&amp;nbsp;&amp;nbsp;&amp;nbsp; THANK YOU FOR YOUR ATTENTION&lt;br&gt;&lt;/div&gt;&lt;div&gt;&lt;br&gt; &lt;/div&gt;" style="text;strokeColor=none;fillColor=none;align=left;verticalAlign=middle;spacingLeft=4;spacingRight=4;overflow=hidden;points=[[0,0.5],[1,0.5]];portConstraint=eastwest;rotatable=0;whiteSpace=wrap;html=1;fontColor=#FFFFFF;" parent="K4F-WoBLJPUvcfpeGWZ--58" vertex="1">
          <mxGeometry y="30" width="260" height="140" as="geometry" />
        </mxCell>
        <mxCell id="K4F-WoBLJPUvcfpeGWZ--63" value="Will probably not support" style="swimlane;fontStyle=0;childLayout=stackLayout;horizontal=1;startSize=30;horizontalStack=0;resizeParent=1;resizeParentMax=0;resizeLast=0;collapsible=1;marginBottom=0;whiteSpace=wrap;html=1;" parent="1" vertex="1">
          <mxGeometry x="1690" y="280" width="210" height="470" as="geometry" />
        </mxCell>
        <mxCell id="K4F-WoBLJPUvcfpeGWZ--84" value="- A bunch of things with little payoff or that sound boring." style="text;strokeColor=none;fillColor=none;align=left;verticalAlign=middle;spacingLeft=4;spacingRight=4;overflow=hidden;points=[[0,0.5],[1,0.5]];portConstraint=eastwest;rotatable=0;whiteSpace=wrap;html=1;" parent="K4F-WoBLJPUvcfpeGWZ--63" vertex="1">
          <mxGeometry y="30" width="210" height="110" as="geometry" />
        </mxCell>
        <mxCell id="K4F-WoBLJPUvcfpeGWZ--62" value="- Ingestion and parsing of XML to create DSL equivalent definition." style="text;strokeColor=none;fillColor=none;align=left;verticalAlign=middle;spacingLeft=4;spacingRight=4;overflow=hidden;points=[[0,0.5],[1,0.5]];portConstraint=eastwest;rotatable=0;whiteSpace=wrap;html=1;" parent="K4F-WoBLJPUvcfpeGWZ--63" vertex="1">
          <mxGeometry y="140" width="210" height="110" as="geometry" />
        </mxCell>
        <mxCell id="K4F-WoBLJPUvcfpeGWZ--67" value="- Integration with SunRISE" style="text;strokeColor=none;fillColor=none;align=left;verticalAlign=middle;spacingLeft=4;spacingRight=4;overflow=hidden;points=[[0,0.5],[1,0.5]];portConstraint=eastwest;rotatable=0;whiteSpace=wrap;html=1;" parent="K4F-WoBLJPUvcfpeGWZ--63" vertex="1">
          <mxGeometry y="250" width="210" height="110" as="geometry" />
        </mxCell>
        <mxCell id="K4F-WoBLJPUvcfpeGWZ--83" value="- 0158-DSN Station Monitor as a Standard Template Construct" style="text;strokeColor=none;fillColor=none;align=left;verticalAlign=middle;spacingLeft=4;spacingRight=4;overflow=hidden;points=[[0,0.5],[1,0.5]];portConstraint=eastwest;rotatable=0;whiteSpace=wrap;html=1;" parent="K4F-WoBLJPUvcfpeGWZ--63" vertex="1">
          <mxGeometry y="360" width="210" height="110" as="geometry" />
        </mxCell>
        <mxCell id="K4F-WoBLJPUvcfpeGWZ--68" value="Alpha Release 1" style="swimlane;fontStyle=0;childLayout=stackLayout;horizontal=1;startSize=30;horizontalStack=0;resizeParent=1;resizeParentMax=0;resizeLast=0;collapsible=1;marginBottom=0;whiteSpace=wrap;html=1;" parent="1" vertex="1">
          <mxGeometry x="100" y="680" width="140" height="80" as="geometry" />
        </mxCell>
        <mxCell id="K4F-WoBLJPUvcfpeGWZ--69" value="For Users who want to define and export XTCE." style="text;strokeColor=none;fillColor=none;align=left;verticalAlign=middle;spacingLeft=4;spacingRight=4;overflow=hidden;points=[[0,0.5],[1,0.5]];portConstraint=eastwest;rotatable=0;whiteSpace=wrap;html=1;" parent="K4F-WoBLJPUvcfpeGWZ--68" vertex="1">
          <mxGeometry y="30" width="140" height="50" as="geometry" />
        </mxCell>
        <mxCell id="K4F-WoBLJPUvcfpeGWZ--72" value="Alpha Release 2" style="swimlane;fontStyle=0;childLayout=stackLayout;horizontal=1;startSize=30;horizontalStack=0;resizeParent=1;resizeParentMax=0;resizeLast=0;collapsible=1;marginBottom=0;whiteSpace=wrap;html=1;" parent="1" vertex="1">
          <mxGeometry x="250" y="630" width="210" height="80" as="geometry" />
        </mxCell>
        <mxCell id="K4F-WoBLJPUvcfpeGWZ--73" value="For Advanced Users who want to explore and provide comments on XTCE engine capabilities." style="text;strokeColor=none;fillColor=none;align=left;verticalAlign=middle;spacingLeft=4;spacingRight=4;overflow=hidden;points=[[0,0.5],[1,0.5]];portConstraint=eastwest;rotatable=0;whiteSpace=wrap;html=1;" parent="K4F-WoBLJPUvcfpeGWZ--72" vertex="1">
          <mxGeometry y="30" width="210" height="50" as="geometry" />
        </mxCell>
        <mxCell id="K4F-WoBLJPUvcfpeGWZ--74" value="Alpha Release 3" style="swimlane;fontStyle=0;childLayout=stackLayout;horizontal=1;startSize=30;horizontalStack=0;resizeParent=1;resizeParentMax=0;resizeLast=0;collapsible=1;marginBottom=0;whiteSpace=wrap;html=1;" parent="1" vertex="1">
          <mxGeometry x="480" y="720" width="160" height="120" as="geometry" />
        </mxCell>
        <mxCell id="K4F-WoBLJPUvcfpeGWZ--75" value="For Advanced Users who want to explore and provide comments on XTCE engine integration and usage." style="text;strokeColor=none;fillColor=none;align=left;verticalAlign=middle;spacingLeft=4;spacingRight=4;overflow=hidden;points=[[0,0.5],[1,0.5]];portConstraint=eastwest;rotatable=0;whiteSpace=wrap;html=1;" parent="K4F-WoBLJPUvcfpeGWZ--74" vertex="1">
          <mxGeometry y="30" width="160" height="90" as="geometry" />
        </mxCell>
        <mxCell id="K4F-WoBLJPUvcfpeGWZ--76" value="Alpha Release 3" style="swimlane;fontStyle=0;childLayout=stackLayout;horizontal=1;startSize=30;horizontalStack=0;resizeParent=1;resizeParentMax=0;resizeLast=0;collapsible=1;marginBottom=0;whiteSpace=wrap;html=1;" parent="1" vertex="1">
          <mxGeometry x="650" y="620" width="210" height="120" as="geometry" />
        </mxCell>
        <mxCell id="K4F-WoBLJPUvcfpeGWZ--77" value="For Advanced Users who want to explore and provide comments on XTCE engine capabilities." style="text;strokeColor=none;fillColor=none;align=left;verticalAlign=middle;spacingLeft=4;spacingRight=4;overflow=hidden;points=[[0,0.5],[1,0.5]];portConstraint=eastwest;rotatable=0;whiteSpace=wrap;html=1;" parent="K4F-WoBLJPUvcfpeGWZ--76" vertex="1">
          <mxGeometry y="30" width="210" height="90" as="geometry" />
        </mxCell>
        <mxCell id="K4F-WoBLJPUvcfpeGWZ--78" value="Beta Release 1" style="swimlane;fontStyle=0;childLayout=stackLayout;horizontal=1;startSize=30;horizontalStack=0;resizeParent=1;resizeParentMax=0;resizeLast=0;collapsible=1;marginBottom=0;whiteSpace=wrap;html=1;" parent="1" vertex="1">
          <mxGeometry x="890" y="600" width="210" height="140" as="geometry" />
        </mxCell>
        <mxCell id="K4F-WoBLJPUvcfpeGWZ--79" value="- Advanced Users will be able to begin integration with their mission." style="text;strokeColor=none;fillColor=none;align=left;verticalAlign=middle;spacingLeft=4;spacingRight=4;overflow=hidden;points=[[0,0.5],[1,0.5]];portConstraint=eastwest;rotatable=0;whiteSpace=wrap;html=1;" parent="K4F-WoBLJPUvcfpeGWZ--78" vertex="1">
          <mxGeometry y="30" width="210" height="50" as="geometry" />
        </mxCell>
        <mxCell id="K4F-WoBLJPUvcfpeGWZ--82" value="- Users will be able to add Yggdrasill to their Bifrost Internal Network." style="text;strokeColor=none;fillColor=none;align=left;verticalAlign=middle;spacingLeft=4;spacingRight=4;overflow=hidden;points=[[0,0.5],[1,0.5]];portConstraint=eastwest;rotatable=0;whiteSpace=wrap;html=1;" parent="K4F-WoBLJPUvcfpeGWZ--78" vertex="1">
          <mxGeometry y="80" width="210" height="60" as="geometry" />
        </mxCell>
        <mxCell id="K4F-WoBLJPUvcfpeGWZ--80" value="Beta Release 2" style="swimlane;fontStyle=0;childLayout=stackLayout;horizontal=1;startSize=30;horizontalStack=0;resizeParent=1;resizeParentMax=0;resizeLast=0;collapsible=1;marginBottom=0;whiteSpace=wrap;html=1;" parent="1" vertex="1">
          <mxGeometry x="1130" y="570" width="230" height="120" as="geometry" />
        </mxCell>
        <mxCell id="K4F-WoBLJPUvcfpeGWZ--81" value="Users will be able to understand XTCE and how to utilize it in their project using Yggdrasill." style="text;strokeColor=none;fillColor=none;align=left;verticalAlign=middle;spacingLeft=4;spacingRight=4;overflow=hidden;points=[[0,0.5],[1,0.5]];portConstraint=eastwest;rotatable=0;whiteSpace=wrap;html=1;" parent="K4F-WoBLJPUvcfpeGWZ--80" vertex="1">
          <mxGeometry y="30" width="230" height="90" as="geometry" />
        </mxCell>
        <mxCell id="K4F-WoBLJPUvcfpeGWZ--85" value="&lt;font style=&quot;font-size: 45px;&quot;&gt;Resources: 1 Mathematician at 0.1 FTE &lt;/font&gt;" style="text;html=1;strokeColor=none;fillColor=#61BAFF;align=center;verticalAlign=middle;whiteSpace=wrap;fontSize=54;fontStyle=1;fontColor=#004D99;" parent="1" vertex="1">
          <mxGeometry x="1000" y="110" width="860" height="60" as="geometry" />
        </mxCell>
      </root>
    </mxGraphModel>
  </diagram>
  <diagram name="Frame-Processing-Rules" id="leo4un2Fy2t4hA8Dxkl2">
    <mxGraphModel dx="1754" dy="2154" grid="1" gridSize="10" guides="1" tooltips="1" connect="1" arrows="1" fold="1" page="1" pageScale="1" pageWidth="827" pageHeight="1169" math="0" shadow="0">
      <root>
        <mxCell id="WIyWlLk6GJQsqaUBKTNV-0" />
        <mxCell id="WIyWlLk6GJQsqaUBKTNV-1" parent="WIyWlLk6GJQsqaUBKTNV-0" />
        <mxCell id="3sNPvWY7vlxXGy-AZM8u-3" style="edgeStyle=orthogonalEdgeStyle;rounded=0;orthogonalLoop=1;jettySize=auto;html=1;" parent="WIyWlLk6GJQsqaUBKTNV-1" source="WIyWlLk6GJQsqaUBKTNV-3" target="3sNPvWY7vlxXGy-AZM8u-1" edge="1">
          <mxGeometry relative="1" as="geometry" />
        </mxCell>
        <mxCell id="WIyWlLk6GJQsqaUBKTNV-3" value="Process Frame" style="rounded=1;whiteSpace=wrap;html=1;fontSize=12;glass=0;strokeWidth=1;shadow=0;" parent="WIyWlLk6GJQsqaUBKTNV-1" vertex="1">
          <mxGeometry x="160" y="-10" width="120" height="40" as="geometry" />
        </mxCell>
        <mxCell id="WIyWlLk6GJQsqaUBKTNV-4" value="Yes" style="rounded=0;html=1;jettySize=auto;orthogonalLoop=1;fontSize=11;endArrow=block;endFill=0;endSize=8;strokeWidth=1;shadow=0;labelBackgroundColor=none;edgeStyle=orthogonalEdgeStyle;" parent="WIyWlLk6GJQsqaUBKTNV-1" source="WIyWlLk6GJQsqaUBKTNV-6" target="WIyWlLk6GJQsqaUBKTNV-10" edge="1">
          <mxGeometry y="20" relative="1" as="geometry">
            <mxPoint as="offset" />
          </mxGeometry>
        </mxCell>
        <mxCell id="WIyWlLk6GJQsqaUBKTNV-5" value="No" style="edgeStyle=orthogonalEdgeStyle;rounded=0;html=1;jettySize=auto;orthogonalLoop=1;fontSize=11;endArrow=block;endFill=0;endSize=8;strokeWidth=1;shadow=0;labelBackgroundColor=none;" parent="WIyWlLk6GJQsqaUBKTNV-1" source="WIyWlLk6GJQsqaUBKTNV-6" target="WIyWlLk6GJQsqaUBKTNV-7" edge="1">
          <mxGeometry y="10" relative="1" as="geometry">
            <mxPoint as="offset" />
          </mxGeometry>
        </mxCell>
        <mxCell id="WIyWlLk6GJQsqaUBKTNV-6" value="Reference?" style="rhombus;whiteSpace=wrap;html=1;shadow=0;fontFamily=Helvetica;fontSize=12;align=center;strokeWidth=1;spacing=6;spacingTop=-4;" parent="WIyWlLk6GJQsqaUBKTNV-1" vertex="1">
          <mxGeometry x="170" y="170" width="100" height="80" as="geometry" />
        </mxCell>
        <mxCell id="WIyWlLk6GJQsqaUBKTNV-7" value="Emit Frame" style="rounded=1;whiteSpace=wrap;html=1;fontSize=12;glass=0;strokeWidth=1;shadow=0;" parent="WIyWlLk6GJQsqaUBKTNV-1" vertex="1">
          <mxGeometry x="320" y="190" width="120" height="40" as="geometry" />
        </mxCell>
        <mxCell id="3sNPvWY7vlxXGy-AZM8u-10" style="edgeStyle=orthogonalEdgeStyle;rounded=0;orthogonalLoop=1;jettySize=auto;html=1;" parent="WIyWlLk6GJQsqaUBKTNV-1" source="WIyWlLk6GJQsqaUBKTNV-10" target="3sNPvWY7vlxXGy-AZM8u-8" edge="1">
          <mxGeometry relative="1" as="geometry" />
        </mxCell>
        <mxCell id="WIyWlLk6GJQsqaUBKTNV-10" value="StreamRef?" style="rhombus;whiteSpace=wrap;html=1;shadow=0;fontFamily=Helvetica;fontSize=12;align=center;strokeWidth=1;spacing=6;spacingTop=-4;" parent="WIyWlLk6GJQsqaUBKTNV-1" vertex="1">
          <mxGeometry x="170" y="290" width="100" height="80" as="geometry" />
        </mxCell>
        <mxCell id="3sNPvWY7vlxXGy-AZM8u-0" style="edgeStyle=orthogonalEdgeStyle;rounded=0;orthogonalLoop=1;jettySize=auto;html=1;entryX=1;entryY=0.5;entryDx=0;entryDy=0;" parent="WIyWlLk6GJQsqaUBKTNV-1" source="WIyWlLk6GJQsqaUBKTNV-10" target="WIyWlLk6GJQsqaUBKTNV-3" edge="1">
          <mxGeometry relative="1" as="geometry">
            <mxPoint x="440" y="330" as="sourcePoint" />
            <Array as="points">
              <mxPoint x="480" y="330" />
              <mxPoint x="480" y="10" />
            </Array>
          </mxGeometry>
        </mxCell>
        <mxCell id="3sNPvWY7vlxXGy-AZM8u-16" value="Yes" style="edgeLabel;html=1;align=center;verticalAlign=middle;resizable=0;points=[];" parent="3sNPvWY7vlxXGy-AZM8u-0" vertex="1" connectable="0">
          <mxGeometry x="-0.819" relative="1" as="geometry">
            <mxPoint as="offset" />
          </mxGeometry>
        </mxCell>
        <mxCell id="3sNPvWY7vlxXGy-AZM8u-4" style="edgeStyle=orthogonalEdgeStyle;rounded=0;orthogonalLoop=1;jettySize=auto;html=1;entryX=0.5;entryY=0;entryDx=0;entryDy=0;" parent="WIyWlLk6GJQsqaUBKTNV-1" source="3sNPvWY7vlxXGy-AZM8u-1" target="WIyWlLk6GJQsqaUBKTNV-6" edge="1">
          <mxGeometry relative="1" as="geometry" />
        </mxCell>
        <mxCell id="3sNPvWY7vlxXGy-AZM8u-31" style="edgeStyle=orthogonalEdgeStyle;rounded=0;orthogonalLoop=1;jettySize=auto;html=1;" parent="WIyWlLk6GJQsqaUBKTNV-1" source="3sNPvWY7vlxXGy-AZM8u-1" target="3sNPvWY7vlxXGy-AZM8u-30" edge="1">
          <mxGeometry relative="1" as="geometry" />
        </mxCell>
        <mxCell id="3sNPvWY7vlxXGy-AZM8u-1" value="Lock?" style="rhombus;whiteSpace=wrap;html=1;shadow=0;fontFamily=Helvetica;fontSize=12;align=center;strokeWidth=1;spacing=6;spacingTop=-4;" parent="WIyWlLk6GJQsqaUBKTNV-1" vertex="1">
          <mxGeometry x="170" y="60" width="100" height="80" as="geometry" />
        </mxCell>
        <mxCell id="3sNPvWY7vlxXGy-AZM8u-18" style="edgeStyle=orthogonalEdgeStyle;rounded=0;orthogonalLoop=1;jettySize=auto;html=1;" parent="WIyWlLk6GJQsqaUBKTNV-1" source="3sNPvWY7vlxXGy-AZM8u-8" target="3sNPvWY7vlxXGy-AZM8u-17" edge="1">
          <mxGeometry relative="1" as="geometry" />
        </mxCell>
        <mxCell id="3sNPvWY7vlxXGy-AZM8u-27" value="Yes" style="edgeLabel;html=1;align=center;verticalAlign=middle;resizable=0;points=[];" parent="3sNPvWY7vlxXGy-AZM8u-18" vertex="1" connectable="0">
          <mxGeometry x="-0.1827" y="-1" relative="1" as="geometry">
            <mxPoint as="offset" />
          </mxGeometry>
        </mxCell>
        <mxCell id="3sNPvWY7vlxXGy-AZM8u-22" style="edgeStyle=orthogonalEdgeStyle;rounded=0;orthogonalLoop=1;jettySize=auto;html=1;" parent="WIyWlLk6GJQsqaUBKTNV-1" source="3sNPvWY7vlxXGy-AZM8u-8" target="3sNPvWY7vlxXGy-AZM8u-21" edge="1">
          <mxGeometry relative="1" as="geometry" />
        </mxCell>
        <mxCell id="3sNPvWY7vlxXGy-AZM8u-8" value="ContainerRef?" style="rhombus;whiteSpace=wrap;html=1;" parent="WIyWlLk6GJQsqaUBKTNV-1" vertex="1">
          <mxGeometry x="175" y="400" width="90" height="90" as="geometry" />
        </mxCell>
        <mxCell id="3sNPvWY7vlxXGy-AZM8u-17" value="Process Container" style="rounded=1;whiteSpace=wrap;html=1;" parent="WIyWlLk6GJQsqaUBKTNV-1" vertex="1">
          <mxGeometry x="320" y="415" width="120" height="60" as="geometry" />
        </mxCell>
        <mxCell id="3sNPvWY7vlxXGy-AZM8u-20" value="&lt;h1&gt;&lt;span style=&quot;background-color: initial;&quot;&gt;Rules&lt;/span&gt;&lt;/h1&gt;&lt;h1&gt;&lt;span style=&quot;background-color: initial; font-size: 12px; font-weight: normal;&quot;&gt;- Major component status is emitted periodically.&lt;/span&gt;&lt;br&gt;&lt;/h1&gt;&lt;p&gt;- All components can emit instantaneous messages.&lt;/p&gt;&lt;p&gt;- Components call a function to help uniformly format and queue emissions or immediately publish.&amp;nbsp;&lt;/p&gt;&lt;p&gt;- Function inserts message into queue, which a NATS threaded loop publishes periodically.&lt;/p&gt;&lt;p&gt;- Function can also perform centralized logging.&lt;/p&gt;&lt;p&gt;- We never emit data unless there is insufficient data in the tree to continue computation or if an external algorithm is specified.&lt;/p&gt;&lt;p&gt;- When an external algorithm is specified, the XTCE entry must specify the host and arguments that will handle the computation.&lt;/p&gt;- Optionally, we can send a reply request over NATS to the host.&lt;p&gt;- Optionally, a lisp expression can be specified, or a local binary can be called.&lt;/p&gt;" style="text;html=1;strokeColor=none;fillColor=none;spacing=5;spacingTop=-20;whiteSpace=wrap;overflow=hidden;rounded=0;" parent="WIyWlLk6GJQsqaUBKTNV-1" vertex="1">
          <mxGeometry x="520" y="30" width="190" height="680" as="geometry" />
        </mxCell>
        <mxCell id="3sNPvWY7vlxXGy-AZM8u-26" style="edgeStyle=orthogonalEdgeStyle;rounded=0;orthogonalLoop=1;jettySize=auto;html=1;entryX=0;entryY=0.5;entryDx=0;entryDy=0;" parent="WIyWlLk6GJQsqaUBKTNV-1" source="3sNPvWY7vlxXGy-AZM8u-21" target="3sNPvWY7vlxXGy-AZM8u-25" edge="1">
          <mxGeometry relative="1" as="geometry" />
        </mxCell>
        <mxCell id="3sNPvWY7vlxXGy-AZM8u-28" value="Yes" style="edgeLabel;html=1;align=center;verticalAlign=middle;resizable=0;points=[];" parent="3sNPvWY7vlxXGy-AZM8u-26" vertex="1" connectable="0">
          <mxGeometry x="-0.0683" y="-1" relative="1" as="geometry">
            <mxPoint as="offset" />
          </mxGeometry>
        </mxCell>
        <mxCell id="3sNPvWY7vlxXGy-AZM8u-21" value="ServiceRef?" style="rhombus;whiteSpace=wrap;html=1;" parent="WIyWlLk6GJQsqaUBKTNV-1" vertex="1">
          <mxGeometry x="180" y="545" width="80" height="80" as="geometry" />
        </mxCell>
        <mxCell id="3sNPvWY7vlxXGy-AZM8u-25" value="Undefined&lt;br&gt;Return" style="rounded=1;whiteSpace=wrap;html=1;" parent="WIyWlLk6GJQsqaUBKTNV-1" vertex="1">
          <mxGeometry x="320" y="555" width="120" height="60" as="geometry" />
        </mxCell>
        <mxCell id="3sNPvWY7vlxXGy-AZM8u-30" value="Continue" style="rounded=1;whiteSpace=wrap;html=1;" parent="WIyWlLk6GJQsqaUBKTNV-1" vertex="1">
          <mxGeometry x="320" y="70" width="120" height="60" as="geometry" />
        </mxCell>
      </root>
    </mxGraphModel>
  </diagram>
  <diagram name="Stream-Processing" id="A-6o1ytI8--VaeLnoe52">
    <mxGraphModel dx="1754" dy="985" grid="1" gridSize="10" guides="1" tooltips="1" connect="1" arrows="1" fold="1" page="1" pageScale="1" pageWidth="850" pageHeight="1100" math="0" shadow="0">
      <root>
        <mxCell id="0" />
        <mxCell id="1" parent="0" />
        <mxCell id="ru_nTOUN9lGOPK5XJXPg-4" value="" style="edgeStyle=orthogonalEdgeStyle;rounded=0;orthogonalLoop=1;jettySize=auto;html=1;" parent="1" source="ru_nTOUN9lGOPK5XJXPg-1" edge="1">
          <mxGeometry relative="1" as="geometry">
            <mxPoint x="510" y="270" as="targetPoint" />
          </mxGeometry>
        </mxCell>
        <mxCell id="ru_nTOUN9lGOPK5XJXPg-1" value="Process Frame" style="rounded=0;whiteSpace=wrap;html=1;" parent="1" vertex="1">
          <mxGeometry x="450" y="160" width="120" height="60" as="geometry" />
        </mxCell>
        <mxCell id="ru_nTOUN9lGOPK5XJXPg-23" value="" style="edgeStyle=orthogonalEdgeStyle;rounded=0;orthogonalLoop=1;jettySize=auto;html=1;" parent="1" source="ru_nTOUN9lGOPK5XJXPg-5" target="ru_nTOUN9lGOPK5XJXPg-22" edge="1">
          <mxGeometry relative="1" as="geometry" />
        </mxCell>
        <mxCell id="ru_nTOUN9lGOPK5XJXPg-25" style="edgeStyle=orthogonalEdgeStyle;rounded=0;orthogonalLoop=1;jettySize=auto;html=1;" parent="1" source="ru_nTOUN9lGOPK5XJXPg-5" target="ru_nTOUN9lGOPK5XJXPg-24" edge="1">
          <mxGeometry relative="1" as="geometry" />
        </mxCell>
        <mxCell id="vZai5_TG4LPqY7rvHXAk-4" style="edgeStyle=orthogonalEdgeStyle;rounded=0;orthogonalLoop=1;jettySize=auto;html=1;entryX=1;entryY=0.5;entryDx=0;entryDy=0;" parent="1" source="ru_nTOUN9lGOPK5XJXPg-5" target="ru_nTOUN9lGOPK5XJXPg-29" edge="1">
          <mxGeometry relative="1" as="geometry">
            <Array as="points">
              <mxPoint x="290" y="190" />
            </Array>
          </mxGeometry>
        </mxCell>
        <mxCell id="vZai5_TG4LPqY7rvHXAk-5" value="NATS: (Stream Directive Frame)" style="edgeLabel;html=1;align=center;verticalAlign=middle;resizable=0;points=[];" parent="vZai5_TG4LPqY7rvHXAk-4" vertex="1" connectable="0">
          <mxGeometry x="0.1375" y="1" relative="1" as="geometry">
            <mxPoint x="44" y="-49" as="offset" />
          </mxGeometry>
        </mxCell>
        <mxCell id="ru_nTOUN9lGOPK5XJXPg-5" value="SLE Interface" style="shape=cylinder3;whiteSpace=wrap;html=1;boundedLbl=1;backgroundOutline=1;size=15;" parent="1" vertex="1">
          <mxGeometry x="260" width="60" height="80" as="geometry" />
        </mxCell>
        <mxCell id="ru_nTOUN9lGOPK5XJXPg-12" style="edgeStyle=orthogonalEdgeStyle;rounded=0;orthogonalLoop=1;jettySize=auto;html=1;" parent="1" source="ru_nTOUN9lGOPK5XJXPg-8" target="ru_nTOUN9lGOPK5XJXPg-11" edge="1">
          <mxGeometry relative="1" as="geometry" />
        </mxCell>
        <mxCell id="ru_nTOUN9lGOPK5XJXPg-19" value="VCID 2" style="edgeLabel;html=1;align=center;verticalAlign=middle;resizable=0;points=[];" parent="ru_nTOUN9lGOPK5XJXPg-12" vertex="1" connectable="0">
          <mxGeometry x="-0.2286" relative="1" as="geometry">
            <mxPoint as="offset" />
          </mxGeometry>
        </mxCell>
        <mxCell id="ru_nTOUN9lGOPK5XJXPg-15" style="edgeStyle=orthogonalEdgeStyle;rounded=0;orthogonalLoop=1;jettySize=auto;html=1;" parent="1" source="ru_nTOUN9lGOPK5XJXPg-8" target="ru_nTOUN9lGOPK5XJXPg-14" edge="1">
          <mxGeometry relative="1" as="geometry" />
        </mxCell>
        <mxCell id="ru_nTOUN9lGOPK5XJXPg-18" value="VCID 1" style="edgeLabel;html=1;align=center;verticalAlign=middle;resizable=0;points=[];" parent="ru_nTOUN9lGOPK5XJXPg-15" vertex="1" connectable="0">
          <mxGeometry x="0.46" relative="1" as="geometry">
            <mxPoint as="offset" />
          </mxGeometry>
        </mxCell>
        <mxCell id="ru_nTOUN9lGOPK5XJXPg-17" style="edgeStyle=orthogonalEdgeStyle;rounded=0;orthogonalLoop=1;jettySize=auto;html=1;" parent="1" source="ru_nTOUN9lGOPK5XJXPg-8" target="ru_nTOUN9lGOPK5XJXPg-16" edge="1">
          <mxGeometry relative="1" as="geometry">
            <mxPoint x="660.0285714285715" y="399.9999999999999" as="targetPoint" />
          </mxGeometry>
        </mxCell>
        <mxCell id="ru_nTOUN9lGOPK5XJXPg-20" value="VCID 3" style="edgeLabel;html=1;align=center;verticalAlign=middle;resizable=0;points=[];" parent="ru_nTOUN9lGOPK5XJXPg-17" vertex="1" connectable="0">
          <mxGeometry x="0.5263" y="2" relative="1" as="geometry">
            <mxPoint as="offset" />
          </mxGeometry>
        </mxCell>
        <mxCell id="ru_nTOUN9lGOPK5XJXPg-8" value="Match on VCID" style="rounded=0;whiteSpace=wrap;html=1;" parent="1" vertex="1">
          <mxGeometry x="450" y="270" width="120" height="60" as="geometry" />
        </mxCell>
        <mxCell id="ru_nTOUN9lGOPK5XJXPg-11" value="Stream Reference 2" style="rounded=0;whiteSpace=wrap;html=1;" parent="1" vertex="1">
          <mxGeometry x="450" y="400" width="120" height="60" as="geometry" />
        </mxCell>
        <mxCell id="ru_nTOUN9lGOPK5XJXPg-14" value="Stream Reference 1" style="rounded=0;whiteSpace=wrap;html=1;" parent="1" vertex="1">
          <mxGeometry x="310" y="400" width="120" height="60" as="geometry" />
        </mxCell>
        <mxCell id="ru_nTOUN9lGOPK5XJXPg-16" value="Stream Reference 3" style="rounded=0;whiteSpace=wrap;html=1;" parent="1" vertex="1">
          <mxGeometry x="600" y="400" width="120" height="60" as="geometry" />
        </mxCell>
        <mxCell id="ru_nTOUN9lGOPK5XJXPg-28" style="edgeStyle=orthogonalEdgeStyle;rounded=0;orthogonalLoop=1;jettySize=auto;html=1;entryX=0.5;entryY=0;entryDx=0;entryDy=0;" parent="1" source="ru_nTOUN9lGOPK5XJXPg-22" target="ru_nTOUN9lGOPK5XJXPg-29" edge="1">
          <mxGeometry relative="1" as="geometry">
            <mxPoint x="70" y="260" as="targetPoint" />
          </mxGeometry>
        </mxCell>
        <mxCell id="F-h9J7pXw2l8fJEj6f9D-4" value="Frame" style="edgeLabel;html=1;align=center;verticalAlign=middle;resizable=0;points=[];" parent="ru_nTOUN9lGOPK5XJXPg-28" vertex="1" connectable="0">
          <mxGeometry x="-0.0429" y="-2" relative="1" as="geometry">
            <mxPoint as="offset" />
          </mxGeometry>
        </mxCell>
        <mxCell id="ru_nTOUN9lGOPK5XJXPg-22" value="RAF" style="rhombus;whiteSpace=wrap;html=1;" parent="1" vertex="1">
          <mxGeometry x="30" width="80" height="80" as="geometry" />
        </mxCell>
        <mxCell id="ru_nTOUN9lGOPK5XJXPg-26" style="edgeStyle=orthogonalEdgeStyle;rounded=0;orthogonalLoop=1;jettySize=auto;html=1;" parent="1" source="ru_nTOUN9lGOPK5XJXPg-24" target="ru_nTOUN9lGOPK5XJXPg-1" edge="1">
          <mxGeometry relative="1" as="geometry" />
        </mxCell>
        <mxCell id="ru_nTOUN9lGOPK5XJXPg-27" value="NATS: (Frame, SCID, Channel)" style="edgeLabel;html=1;align=center;verticalAlign=middle;resizable=0;points=[];" parent="ru_nTOUN9lGOPK5XJXPg-26" vertex="1" connectable="0">
          <mxGeometry x="-0.2212" y="-2" relative="1" as="geometry">
            <mxPoint as="offset" />
          </mxGeometry>
        </mxCell>
        <mxCell id="ru_nTOUN9lGOPK5XJXPg-24" value="RCF" style="rhombus;whiteSpace=wrap;html=1;" parent="1" vertex="1">
          <mxGeometry x="470" width="80" height="80" as="geometry" />
        </mxCell>
        <mxCell id="F-h9J7pXw2l8fJEj6f9D-13" style="edgeStyle=orthogonalEdgeStyle;rounded=0;orthogonalLoop=1;jettySize=auto;html=1;entryX=0.5;entryY=0;entryDx=0;entryDy=0;" parent="1" source="ru_nTOUN9lGOPK5XJXPg-29" target="F-h9J7pXw2l8fJEj6f9D-5" edge="1">
          <mxGeometry relative="1" as="geometry" />
        </mxCell>
        <mxCell id="ru_nTOUN9lGOPK5XJXPg-29" value="Process Frame" style="rounded=0;whiteSpace=wrap;html=1;" parent="1" vertex="1">
          <mxGeometry x="10" y="160" width="120" height="60" as="geometry" />
        </mxCell>
        <mxCell id="F-h9J7pXw2l8fJEj6f9D-14" style="edgeStyle=orthogonalEdgeStyle;rounded=0;orthogonalLoop=1;jettySize=auto;html=1;" parent="1" source="ru_nTOUN9lGOPK5XJXPg-31" target="bROxpr9JgsJlzrxO5iXi-1" edge="1">
          <mxGeometry relative="1" as="geometry">
            <Array as="points">
              <mxPoint x="71" y="590" />
            </Array>
          </mxGeometry>
        </mxCell>
        <mxCell id="ru_nTOUN9lGOPK5XJXPg-31" value="Stream Reference" style="rounded=0;whiteSpace=wrap;html=1;" parent="1" vertex="1">
          <mxGeometry x="11" y="421.04" width="120" height="60" as="geometry" />
        </mxCell>
        <mxCell id="bROxpr9JgsJlzrxO5iXi-1" value="Fixed Frame?" style="rhombus;whiteSpace=wrap;html=1;" parent="1" vertex="1">
          <mxGeometry x="220" y="540" width="100" height="100" as="geometry" />
        </mxCell>
        <mxCell id="F-h9J7pXw2l8fJEj6f9D-1" value="Variable Frame?" style="rhombus;whiteSpace=wrap;html=1;" parent="1" vertex="1">
          <mxGeometry x="220" y="680" width="100" height="100" as="geometry" />
        </mxCell>
        <mxCell id="F-h9J7pXw2l8fJEj6f9D-9" style="edgeStyle=orthogonalEdgeStyle;rounded=0;orthogonalLoop=1;jettySize=auto;html=1;entryX=0.993;entryY=0.564;entryDx=0;entryDy=0;entryPerimeter=0;" parent="1" source="F-h9J7pXw2l8fJEj6f9D-15" target="ru_nTOUN9lGOPK5XJXPg-31" edge="1">
          <mxGeometry relative="1" as="geometry">
            <mxPoint x="206.02857142857147" y="355" as="sourcePoint" />
            <Array as="points">
              <mxPoint x="206" y="455" />
            </Array>
          </mxGeometry>
        </mxCell>
        <mxCell id="F-h9J7pXw2l8fJEj6f9D-11" value="Default" style="edgeLabel;html=1;align=center;verticalAlign=middle;resizable=0;points=[];" parent="F-h9J7pXw2l8fJEj6f9D-9" vertex="1" connectable="0">
          <mxGeometry x="-0.371" y="2" relative="1" as="geometry">
            <mxPoint as="offset" />
          </mxGeometry>
        </mxCell>
        <mxCell id="F-h9J7pXw2l8fJEj6f9D-6" style="edgeStyle=orthogonalEdgeStyle;rounded=0;orthogonalLoop=1;jettySize=auto;html=1;" parent="1" source="F-h9J7pXw2l8fJEj6f9D-5" target="ru_nTOUN9lGOPK5XJXPg-31" edge="1">
          <mxGeometry relative="1" as="geometry" />
        </mxCell>
        <mxCell id="F-h9J7pXw2l8fJEj6f9D-12" value="Yes" style="edgeLabel;html=1;align=center;verticalAlign=middle;resizable=0;points=[];" parent="F-h9J7pXw2l8fJEj6f9D-6" vertex="1" connectable="0">
          <mxGeometry x="-0.1575" y="-1" relative="1" as="geometry">
            <mxPoint as="offset" />
          </mxGeometry>
        </mxCell>
        <mxCell id="F-h9J7pXw2l8fJEj6f9D-8" style="edgeStyle=orthogonalEdgeStyle;rounded=0;orthogonalLoop=1;jettySize=auto;html=1;" parent="1" source="F-h9J7pXw2l8fJEj6f9D-5" target="F-h9J7pXw2l8fJEj6f9D-15" edge="1">
          <mxGeometry relative="1" as="geometry">
            <mxPoint x="176" y="310" as="targetPoint" />
          </mxGeometry>
        </mxCell>
        <mxCell id="F-h9J7pXw2l8fJEj6f9D-10" value="No" style="edgeLabel;html=1;align=center;verticalAlign=middle;resizable=0;points=[];" parent="F-h9J7pXw2l8fJEj6f9D-8" vertex="1" connectable="0">
          <mxGeometry x="-0.1476" y="-1" relative="1" as="geometry">
            <mxPoint as="offset" />
          </mxGeometry>
        </mxCell>
        <mxCell id="F-h9J7pXw2l8fJEj6f9D-5" value="Stream&amp;nbsp;&lt;br&gt;Directive?" style="rhombus;whiteSpace=wrap;html=1;" parent="1" vertex="1">
          <mxGeometry x="26" y="260" width="90" height="100" as="geometry" />
        </mxCell>
        <mxCell id="F-h9J7pXw2l8fJEj6f9D-15" value="Default" style="rounded=0;whiteSpace=wrap;html=1;" parent="1" vertex="1">
          <mxGeometry x="190" y="280" width="40" height="60" as="geometry" />
        </mxCell>
      </root>
    </mxGraphModel>
  </diagram>
  <diagram name="Fixed-Frame-States" id="vbweRSEgsjYBIYBwzSCF">
    <mxGraphModel dx="1754" dy="985" grid="1" gridSize="10" guides="1" tooltips="1" connect="1" arrows="1" fold="1" page="1" pageScale="1" pageWidth="850" pageHeight="1100" math="0" shadow="0">
      <root>
        <mxCell id="0" />
        <mxCell id="1" parent="0" />
        <mxCell id="o3wIXrdPn_Dft9DkVsX2-35" style="edgeStyle=orthogonalEdgeStyle;rounded=0;orthogonalLoop=1;jettySize=auto;html=1;curved=1;" parent="1" source="o3wIXrdPn_Dft9DkVsX2-1" target="o3wIXrdPn_Dft9DkVsX2-1" edge="1">
          <mxGeometry relative="1" as="geometry">
            <mxPoint x="250" y="160" as="targetPoint" />
            <Array as="points">
              <mxPoint x="220" y="210" />
              <mxPoint x="220" y="175" />
            </Array>
          </mxGeometry>
        </mxCell>
        <mxCell id="o3wIXrdPn_Dft9DkVsX2-36" value="Marker not found&lt;br&gt;(emit search)" style="edgeLabel;html=1;align=center;verticalAlign=middle;resizable=0;points=[];" parent="o3wIXrdPn_Dft9DkVsX2-35" vertex="1" connectable="0">
          <mxGeometry x="-0.1339" y="2" relative="1" as="geometry">
            <mxPoint x="-38" y="-23" as="offset" />
          </mxGeometry>
        </mxCell>
        <mxCell id="o3wIXrdPn_Dft9DkVsX2-1" value="Search" style="ellipse;whiteSpace=wrap;html=1;aspect=fixed;fillColor=#f8cecc;strokeColor=#b85450;" parent="1" vertex="1">
          <mxGeometry x="270" y="170" width="80" height="80" as="geometry" />
        </mxCell>
        <mxCell id="o3wIXrdPn_Dft9DkVsX2-9" style="edgeStyle=orthogonalEdgeStyle;rounded=0;orthogonalLoop=1;jettySize=auto;html=1;entryX=0;entryY=1;entryDx=0;entryDy=0;curved=1;" parent="1" source="o3wIXrdPn_Dft9DkVsX2-14" target="o3wIXrdPn_Dft9DkVsX2-1" edge="1">
          <mxGeometry relative="1" as="geometry">
            <mxPoint x="270" y="370" as="sourcePoint" />
            <Array as="points">
              <mxPoint x="210" y="370" />
              <mxPoint x="210" y="238" />
            </Array>
          </mxGeometry>
        </mxCell>
        <mxCell id="o3wIXrdPn_Dft9DkVsX2-29" value="Marker not found" style="edgeLabel;html=1;align=center;verticalAlign=middle;resizable=0;points=[];" parent="o3wIXrdPn_Dft9DkVsX2-9" vertex="1" connectable="0">
          <mxGeometry x="0.1405" y="-4" relative="1" as="geometry">
            <mxPoint y="20" as="offset" />
          </mxGeometry>
        </mxCell>
        <mxCell id="o3wIXrdPn_Dft9DkVsX2-11" style="edgeStyle=orthogonalEdgeStyle;rounded=0;orthogonalLoop=1;jettySize=auto;html=1;" parent="1" source="o3wIXrdPn_Dft9DkVsX2-10" target="o3wIXrdPn_Dft9DkVsX2-1" edge="1">
          <mxGeometry relative="1" as="geometry" />
        </mxCell>
        <mxCell id="o3wIXrdPn_Dft9DkVsX2-12" value="Initialize" style="edgeLabel;html=1;align=center;verticalAlign=middle;resizable=0;points=[];" parent="o3wIXrdPn_Dft9DkVsX2-11" vertex="1" connectable="0">
          <mxGeometry x="-0.2067" y="1" relative="1" as="geometry">
            <mxPoint as="offset" />
          </mxGeometry>
        </mxCell>
        <mxCell id="o3wIXrdPn_Dft9DkVsX2-10" value="S0" style="ellipse;whiteSpace=wrap;html=1;aspect=fixed;" parent="1" vertex="1">
          <mxGeometry x="270" y="30" width="80" height="80" as="geometry" />
        </mxCell>
        <mxCell id="o3wIXrdPn_Dft9DkVsX2-15" value="" style="edgeStyle=orthogonalEdgeStyle;rounded=0;orthogonalLoop=1;jettySize=auto;html=1;" parent="1" source="o3wIXrdPn_Dft9DkVsX2-1" target="o3wIXrdPn_Dft9DkVsX2-14" edge="1">
          <mxGeometry relative="1" as="geometry">
            <Array as="points">
              <mxPoint x="310" y="310" />
              <mxPoint x="310" y="310" />
            </Array>
          </mxGeometry>
        </mxCell>
        <mxCell id="o3wIXrdPn_Dft9DkVsX2-28" value="Found a marker" style="edgeLabel;html=1;align=center;verticalAlign=middle;resizable=0;points=[];" parent="o3wIXrdPn_Dft9DkVsX2-15" vertex="1" connectable="0">
          <mxGeometry x="0.095" y="2" relative="1" as="geometry">
            <mxPoint as="offset" />
          </mxGeometry>
        </mxCell>
        <mxCell id="o3wIXrdPn_Dft9DkVsX2-19" style="edgeStyle=orthogonalEdgeStyle;rounded=0;orthogonalLoop=1;jettySize=auto;html=1;" parent="1" source="o3wIXrdPn_Dft9DkVsX2-14" target="o3wIXrdPn_Dft9DkVsX2-16" edge="1">
          <mxGeometry relative="1" as="geometry" />
        </mxCell>
        <mxCell id="o3wIXrdPn_Dft9DkVsX2-27" value="&#39;verify-count number of&lt;br&gt;consecutive markers found&lt;br&gt;(emit lock)" style="edgeLabel;html=1;align=center;verticalAlign=middle;resizable=0;points=[];" parent="o3wIXrdPn_Dft9DkVsX2-19" vertex="1" connectable="0">
          <mxGeometry x="-0.56" relative="1" as="geometry">
            <mxPoint x="50" y="30" as="offset" />
          </mxGeometry>
        </mxCell>
        <mxCell id="o3wIXrdPn_Dft9DkVsX2-37" style="edgeStyle=orthogonalEdgeStyle;rounded=0;orthogonalLoop=1;jettySize=auto;html=1;curved=1;exitX=0.637;exitY=0.96;exitDx=0;exitDy=0;exitPerimeter=0;" parent="1" source="o3wIXrdPn_Dft9DkVsX2-14" target="o3wIXrdPn_Dft9DkVsX2-14" edge="1">
          <mxGeometry relative="1" as="geometry">
            <mxPoint x="280" y="490" as="targetPoint" />
            <Array as="points">
              <mxPoint x="320" y="407" />
              <mxPoint x="320" y="450" />
              <mxPoint x="278" y="450" />
            </Array>
          </mxGeometry>
        </mxCell>
        <mxCell id="o3wIXrdPn_Dft9DkVsX2-38" value="Consecutive Marker&lt;br&gt;(emit verify)" style="edgeLabel;html=1;align=center;verticalAlign=middle;resizable=0;points=[];" parent="o3wIXrdPn_Dft9DkVsX2-37" vertex="1" connectable="0">
          <mxGeometry x="-0.1289" y="2" relative="1" as="geometry">
            <mxPoint y="18" as="offset" />
          </mxGeometry>
        </mxCell>
        <mxCell id="o3wIXrdPn_Dft9DkVsX2-14" value="Verify" style="ellipse;whiteSpace=wrap;html=1;aspect=fixed;fillColor=#d5e8d4;strokeColor=#82b366;" parent="1" vertex="1">
          <mxGeometry x="270" y="330" width="80" height="80" as="geometry" />
        </mxCell>
        <mxCell id="o3wIXrdPn_Dft9DkVsX2-18" style="edgeStyle=orthogonalEdgeStyle;rounded=0;orthogonalLoop=1;jettySize=auto;html=1;" parent="1" source="o3wIXrdPn_Dft9DkVsX2-16" target="o3wIXrdPn_Dft9DkVsX2-17" edge="1">
          <mxGeometry relative="1" as="geometry" />
        </mxCell>
        <mxCell id="o3wIXrdPn_Dft9DkVsX2-22" value="Marker not found" style="edgeLabel;html=1;align=center;verticalAlign=middle;resizable=0;points=[];" parent="o3wIXrdPn_Dft9DkVsX2-18" vertex="1" connectable="0">
          <mxGeometry x="-0.245" y="-1" relative="1" as="geometry">
            <mxPoint as="offset" />
          </mxGeometry>
        </mxCell>
        <mxCell id="o3wIXrdPn_Dft9DkVsX2-16" value="Lock" style="ellipse;whiteSpace=wrap;html=1;aspect=fixed;fillColor=#dae8fc;strokeColor=#6c8ebf;" parent="1" vertex="1">
          <mxGeometry x="530" y="330" width="80" height="80" as="geometry" />
        </mxCell>
        <mxCell id="o3wIXrdPn_Dft9DkVsX2-20" style="edgeStyle=orthogonalEdgeStyle;orthogonalLoop=1;jettySize=auto;html=1;entryX=1.015;entryY=0.558;entryDx=0;entryDy=0;entryPerimeter=0;rounded=0;curved=1;" parent="1" source="o3wIXrdPn_Dft9DkVsX2-17" target="o3wIXrdPn_Dft9DkVsX2-16" edge="1">
          <mxGeometry relative="1" as="geometry">
            <Array as="points">
              <mxPoint x="650" y="190" />
              <mxPoint x="650" y="375" />
            </Array>
          </mxGeometry>
        </mxCell>
        <mxCell id="o3wIXrdPn_Dft9DkVsX2-21" value="Marker Found&lt;br&gt;within n frames&amp;nbsp;" style="edgeLabel;html=1;align=center;verticalAlign=middle;resizable=0;points=[];" parent="o3wIXrdPn_Dft9DkVsX2-20" vertex="1" connectable="0">
          <mxGeometry x="0.0385" y="-1" relative="1" as="geometry">
            <mxPoint y="-24" as="offset" />
          </mxGeometry>
        </mxCell>
        <mxCell id="o3wIXrdPn_Dft9DkVsX2-23" style="edgeStyle=orthogonalEdgeStyle;rounded=0;orthogonalLoop=1;jettySize=auto;html=1;entryX=1;entryY=0.5;entryDx=0;entryDy=0;" parent="1" source="o3wIXrdPn_Dft9DkVsX2-17" target="o3wIXrdPn_Dft9DkVsX2-1" edge="1">
          <mxGeometry relative="1" as="geometry" />
        </mxCell>
        <mxCell id="o3wIXrdPn_Dft9DkVsX2-26" value="&#39;check-counter &lt;br&gt;Exceeded" style="edgeLabel;html=1;align=center;verticalAlign=middle;resizable=0;points=[];" parent="o3wIXrdPn_Dft9DkVsX2-23" vertex="1" connectable="0">
          <mxGeometry x="-0.0359" y="2" relative="1" as="geometry">
            <mxPoint as="offset" />
          </mxGeometry>
        </mxCell>
        <mxCell id="o3wIXrdPn_Dft9DkVsX2-17" value="Check" style="ellipse;whiteSpace=wrap;html=1;aspect=fixed;fillColor=#ffe6cc;strokeColor=#d79b00;" parent="1" vertex="1">
          <mxGeometry x="530" y="170" width="80" height="80" as="geometry" />
        </mxCell>
        <mxCell id="o3wIXrdPn_Dft9DkVsX2-24" style="edgeStyle=orthogonalEdgeStyle;rounded=0;orthogonalLoop=1;jettySize=auto;html=1;curved=1;" parent="1" source="o3wIXrdPn_Dft9DkVsX2-17" target="o3wIXrdPn_Dft9DkVsX2-17" edge="1">
          <mxGeometry relative="1" as="geometry">
            <Array as="points">
              <mxPoint x="590" y="130" />
              <mxPoint x="560" y="130" />
            </Array>
          </mxGeometry>
        </mxCell>
        <mxCell id="o3wIXrdPn_Dft9DkVsX2-25" value="&#39;check-counter &lt;br&gt;not reached&lt;br&gt;(emit check)" style="edgeLabel;html=1;align=center;verticalAlign=middle;resizable=0;points=[];" parent="o3wIXrdPn_Dft9DkVsX2-24" vertex="1" connectable="0">
          <mxGeometry x="-0.0032" y="1" relative="1" as="geometry">
            <mxPoint y="-41" as="offset" />
          </mxGeometry>
        </mxCell>
        <mxCell id="o3wIXrdPn_Dft9DkVsX2-33" style="edgeStyle=orthogonalEdgeStyle;rounded=0;orthogonalLoop=1;jettySize=auto;html=1;curved=1;entryX=1;entryY=1;entryDx=0;entryDy=0;exitX=0.403;exitY=0.977;exitDx=0;exitDy=0;exitPerimeter=0;" parent="1" source="o3wIXrdPn_Dft9DkVsX2-16" target="o3wIXrdPn_Dft9DkVsX2-16" edge="1">
          <mxGeometry relative="1" as="geometry">
            <mxPoint x="670" y="450" as="targetPoint" />
            <mxPoint x="560" y="420" as="sourcePoint" />
            <Array as="points">
              <mxPoint x="560" y="408" />
              <mxPoint x="560" y="440" />
              <mxPoint x="598" y="440" />
            </Array>
          </mxGeometry>
        </mxCell>
        <mxCell id="o3wIXrdPn_Dft9DkVsX2-34" value="Marker Found&lt;br&gt;(emit frame)" style="edgeLabel;html=1;align=center;verticalAlign=middle;resizable=0;points=[];" parent="o3wIXrdPn_Dft9DkVsX2-33" vertex="1" connectable="0">
          <mxGeometry x="0.0144" y="-1" relative="1" as="geometry">
            <mxPoint x="-4" y="19" as="offset" />
          </mxGeometry>
        </mxCell>
      </root>
    </mxGraphModel>
  </diagram>
</mxfile>
